<svg width="25" height="41" viewBox="0 0 25 41" fill="none" xmlns="http://www.w3.org/2000/svg">
<path d="M25 27L12.6289 40.4021L1.90735e-06 27L5.92784 27L12.6289 33.701L19.0722 27H25Z" fill="#899499" fill-opacity="0.5"/>
<path d="M25 18L12.6289 31.4021L1.90735e-06 18L5.92784 18L12.6289 24.701L19.0722 18H25Z" fill="#899499" fill-opacity="0.4"/>
<path d="M25 9.00001L12.6289 22.4021L1.90735e-06 9.00001L5.92784 9.00001L12.6289 15.701L19.0722 9.00001H25Z" fill="#899499" fill-opacity="0.3"/>
<path d="M25 7.62939e-06L12.6289 13.4021L1.90735e-06 7.62939e-06L5.92784 7.62939e-06L12.6289 6.70104L19.0722 7.62939e-06H25Z" fill="#899499" fill-opacity="0.2"/>
</svg>
