<svg width="100" height="100" viewBox="0 0 100 100" fill="none" xmlns="http://www.w3.org/2000/svg">
<rect width="100" height="100" rx="50" fill="#F6AF3B"/>
<path d="M45.8333 70.8334H54.1667V45.8334H45.8333V70.8334ZM50 37.5C51.1806 37.5 52.1702 37.1007 52.9688 36.3021C53.7674 35.5035 54.1667 34.5139 54.1667 33.3334C54.1667 32.1528 53.7674 31.1632 52.9688 30.3646C52.1702 29.566 51.1806 29.1667 50 29.1667C48.8195 29.1667 47.8299 29.566 47.0313 30.3646C46.2327 31.1632 45.8333 32.1528 45.8333 33.3334C45.8333 34.5139 46.2327 35.5035 47.0313 36.3021C47.8299 37.1007 48.8195 37.5 50 37.5ZM50 91.6667C44.2361 91.6667 38.8195 90.573 33.75 88.3855C28.6806 86.198 24.2708 83.2292 20.5208 79.4792C16.7708 75.7292 13.8021 71.3195 11.6146 66.25C9.42709 61.1806 8.33334 55.7639 8.33334 50C8.33334 44.2362 9.42709 38.8195 11.6146 33.75C13.8021 28.6806 16.7708 24.2709 20.5208 20.5209C24.2708 16.7709 28.6806 13.8021 33.75 11.6146C38.8195 9.42712 44.2361 8.33337 50 8.33337C55.7639 8.33337 61.1806 9.42712 66.25 11.6146C71.3195 13.8021 75.7292 16.7709 79.4792 20.5209C83.2292 24.2709 86.1979 28.6806 88.3854 33.75C90.5729 38.8195 91.6667 44.2362 91.6667 50C91.6667 55.7639 90.5729 61.1806 88.3854 66.25C86.1979 71.3195 83.2292 75.7292 79.4792 79.4792C75.7292 83.2292 71.3195 86.198 66.25 88.3855C61.1806 90.573 55.7639 91.6667 50 91.6667ZM50 83.3334C59.3056 83.3334 67.1875 80.1042 73.6458 73.6459C80.1042 67.1875 83.3333 59.3056 83.3333 50C83.3333 40.6945 80.1042 32.8125 73.6458 26.3542C67.1875 19.8959 59.3056 16.6667 50 16.6667C40.6945 16.6667 32.8125 19.8959 26.3542 26.3542C19.8958 32.8125 16.6667 40.6945 16.6667 50C16.6667 59.3056 19.8958 67.1875 26.3542 73.6459C32.8125 80.1042 40.6945 83.3334 50 83.3334Z" fill="black"/>
</svg>
