<svg width="127" height="136" viewBox="0 0 127 136" fill="none" xmlns="http://www.w3.org/2000/svg">
<path d="M111.635 18.6483H86.5429V4.93517C86.5429 2.21095 84.4782 0 81.9343 0H45.0657C42.5218 0 40.4571 2.21095 40.4571 4.93517V18.6483H15.365C11.9731 18.6483 9.22021 21.5963 9.22021 25.2286C9.22021 28.8608 11.9731 31.8088 15.365 31.8088H21.5128V127.775C21.5128 132.318 24.9508 136 29.1938 136H97.8062C102.049 136 105.487 132.318 105.487 127.775V31.8088H111.635C115.027 31.8088 117.78 28.8608 117.78 25.2286C117.78 21.5963 115.024 18.6483 111.635 18.6483ZM43.5295 117.358C43.5295 120.082 41.4649 122.293 38.9209 122.293C36.377 122.293 34.3124 120.082 34.3124 117.358V48.2659C34.3124 45.5417 36.377 43.3308 38.9209 43.3308C41.4649 43.3308 43.5295 45.5417 43.5295 48.2659V117.358ZM68.1086 117.358C68.1086 120.082 66.0439 122.293 63.5 122.293C60.9561 122.293 58.8914 120.082 58.8914 117.358V48.2659C58.8914 45.5417 60.9561 43.3308 63.5 43.3308C66.0439 43.3308 68.1086 45.5417 68.1086 48.2659V117.358ZM77.3257 18.6483H49.6743V9.87033H77.3257V18.6483ZM92.6876 117.358C92.6876 120.082 90.623 122.293 88.079 122.293C85.5351 122.293 83.4705 120.082 83.4705 117.358V48.2659C83.4705 45.5417 85.5351 43.3308 88.079 43.3308C90.623 43.3308 92.6876 45.5417 92.6876 48.2659V117.358Z" fill="#CACECF"/>
</svg>
